<?xml version="1.0" encoding="utf-8"?>
<!-- Generator: Adobe Illustrator 19.1.0, SVG Export Plug-In . SVG Version: 6.00 Build 0)  -->
<svg version="1.1" id="Layer_1" xmlns="http://www.w3.org/2000/svg" xmlns:xlink="http://www.w3.org/1999/xlink" x="0px" y="0px"
	 viewBox="0 0 500 500" style="enable-background:new 0 0 500 500;" xml:space="preserve">
<style type="text/css">
	.st0{clip-path:url(#SVGID_2_);}
	.st1{clip-path:url(#SVGID_4_);fill:#FFFFFF;stroke:#FFFFFF;stroke-miterlimit:10;}
</style>
<g>
	<g>
		<defs>
			<path id="SVGID_1_" d="M335.2,261.9c-13.7,16.2-22.3,26.6-25.7,31.3c-2.9,4.2-4.4,8.6-4.4,13.2c0,2.2,0.6,4.6,1.8,7.2
				c1.2,2.6,3.2,5,6.1,7.2c2.8,2.2,6.3,4,10.5,5.5c4.2,1.5,9.2,2.2,15.1,2.2c16.9,0,33.7-4,50.4-12.1c16.7-8.1,25-16.7,25-25.7
				c0-6.9-5.6-12.3-16.9-16.2c-5.6-2-13.5-4-23.7-6.3S350.4,263.9,335.2,261.9z M354.3,238.7l-9.2,10.7c34.1,3.9,59.1,9.7,75,17.3
				c15.9,7.6,23.9,18,23.9,31.3c0,10.1-6,20.4-18,30.9c-12.3,10.8-28,19.6-47.1,26.5c-19.4,7.1-37.6,10.7-54.8,10.7
				c-17.7,0-31.4-3.4-41.2-10.1c-9.8-6.7-14.7-15.3-14.7-25.6c0-10.3,3.2-21,9.7-32.2c6.5-11.2,16-24.5,28.5-39.9
				c-17.9-0.2-26.9-4.9-26.9-14c0-4.7,2.2-7.7,6.6-9.2c3.9-1.7,19.3-4,46-7c26.5-33.4,49.9-50,70.3-50c1.7,0,2.6,0.4,2.6,1.1
				c0,0.5-3.6,4.9-10.7,13.2l-27.6,31.3c66-8.1,99-22.4,99-43c0-14.7-15.3-22.1-46-22.1c-19.9,0-41.2,2.9-64,8.8
				c-22.6,5.9-33.8,10.1-33.8,12.5c0,1,1.1,1.8,3.3,2.6c3.7,1.2,5.5,2.7,5.5,4.4c0,2-9,5.6-26.9,11c-17.7,5.4-29.3,8.1-34.9,8.1
				c-10.3,0-10.3-8.6,0-25.7c5.6-8.8,11.4-16.5,17.3-23c5.9-6.5,10.7-10.5,14.3-12c2-1,5.6-2.2,10.9-3.7c5.3-1.5,12.2-3.4,20.8-5.9
				c17.7-4.9,34.3-8.6,49.8-11.2c15.6-2.6,29.6-3.9,42.1-3.9c23.1,0,40.1,4.1,51.1,12.3c11,8.2,16.6,18.3,16.6,30.3
				c0,16.7-10.4,31.8-31.3,45.2C439.8,222,404.3,232.1,354.3,238.7z M130.3,171c0.5,2.7,0.9,4.9,1.1,6.6c0.2,1.7,0.3,3.4,0.2,5
				c-0.1,1.6-0.5,3.2-1.1,4.8c-0.6,1.6-1.7,3.5-3.1,5.7c-11.5,17.7-21.8,33.8-30.7,48.6s-16.9,28.1-23.7,40.1
				c-13.5,23.3-20.2,37.4-20.2,42.3c0,5.6,6.7,8.5,20.2,8.5c23.8,0,48.2-5.5,73.2-16.6c25.3-11.5,45.2-25.7,60-42.7
				c15-17.2,22.4-34.3,22.4-51.5c0-17.7-6.3-30.7-18.9-39.2c-12.6-8.5-31.2-12.7-55.7-12.7C146.4,169.9,138.6,170.3,130.3,171z
				 M125.1,172.1c-15.9,2-35.1,6.7-57.4,14.3c-22.1,7.8-33.1,13.2-33.1,16.2c0,1,0.7,1.2,2.2,0.7c10.8-2,23.5-3.4,38.3-4.4
				c-7.4,2.2-15.2,4.9-23.5,8.1s-17.2,6.9-26.5,11c-2.9,1.2-5.4,1.8-7.4,1.8c-6.4,0-9.6-4-9.6-12.1c0-13.7,2.5-24.9,7.4-33.5
				c4.9-8.8,17.4-17.4,37.5-25.7c20.8-8.8,39.8-15,56.8-18.6c17-3.6,32.2-5.3,45.4-5.3c28.7,0,51.3,7.6,67.9,22.8
				c16.6,15.2,24.8,36.5,24.8,64c0,27.2-10.9,53.6-32.7,79.1c-22.1,25.7-49,45-80.9,57.8c-31.6,12.8-59.8,19.1-84.6,19.1
				c-10.1,0-16.2-1.3-18.4-4C29.1,361,28,354.8,28,345c0-9.6,3.2-21.5,9.6-35.7c6.4-13.7,17.7-33.5,33.8-59.2
				C87.3,225.1,105.3,199.1,125.1,172.1z"/>
		</defs>
		<clipPath id="SVGID_2_">
			<use xlink:href="#SVGID_1_"  style="overflow:visible;"/>
		</clipPath>
		<g class="st0">
			<defs>
				<rect id="SVGID_3_" x="-144.5" y="-294.7" width="761.5" height="1353.7"/>
			</defs>
			<clipPath id="SVGID_4_">
				<use xlink:href="#SVGID_3_"  style="overflow:visible;"/>
			</clipPath>
			<rect x="-1.1" y="111.4" class="st1" width="502.1" height="265.2"/>
			<use xlink:href="#SVGID_3_"  style="overflow:visible;fill:none;stroke:#FFFFFF;stroke-miterlimit:10;"/>
		</g>
		
			<use xlink:href="#SVGID_1_"  style="overflow:visible;fill-rule:evenodd;clip-rule:evenodd;fill:none;stroke:#FFFFFF;stroke-miterlimit:10;"/>
	</g>
</g>
</svg>
